<svg version="1.1" id="Layer_1" xmlns="http://www.w3.org/2000/svg" xmlns:xlink="http://www.w3.org/1999/xlink" x="0px" y="0px"
	 width="100%" viewBox="0 0 562 215" enable-background="new 0 0 562 215" xml:space="preserve">
<path fill="#FFFFFF" opacity="1.000000" stroke="none" 
	d="
M397.000000,216.000000 
	C264.666656,216.000000 132.833328,216.000000 1.000000,216.000000 
	C1.000000,144.333328 1.000000,72.666664 1.000000,1.000000 
	C188.333328,1.000000 375.666656,1.000000 563.000000,1.000000 
	C563.000000,72.666664 563.000000,144.333328 563.000000,216.000000 
	C507.833344,216.000000 452.666656,216.000000 397.000000,216.000000 
M128.500000,48.998955 
	C101.839882,48.999016 75.179764,48.990650 48.519657,49.003639 
	C39.012814,49.008274 35.014091,52.901840 35.008854,62.216335 
	C34.990131,95.541382 34.986759,128.866455 35.011253,162.191498 
	C35.017788,171.079224 38.938595,174.985001 47.870163,174.990570 
	C85.860710,175.014282 123.851288,175.015381 161.841827,174.989227 
	C170.268173,174.983429 174.600952,171.318176 174.645203,163.095322 
	C174.828094,129.104813 174.815048,95.112335 174.657425,61.121586 
	C174.619751,52.996078 170.136871,49.047176 161.991882,49.011189 
	C151.161438,48.963337 140.330643,48.999107 128.500000,48.998955 
M348.720245,112.343552 
	C350.669159,104.735039 352.618073,97.126534 354.582550,89.457191 
	C346.056763,88.121727 346.082977,88.128052 344.349915,95.306992 
	C342.850769,101.517006 341.283142,107.710480 339.745789,113.911270 
	C337.533264,107.817383 336.508179,101.686493 335.417267,95.567337 
	C334.068573,88.002151 333.935394,87.933037 326.077148,89.401627 
	C324.503479,97.309929 322.921509,105.260025 321.339539,113.210129 
	C318.906067,106.711693 317.411285,100.412727 315.957520,94.104309 
	C314.493011,87.749138 312.527039,86.832115 305.978271,89.815475 
	C309.768707,105.479828 313.574829,121.208870 317.343292,136.782349 
	C320.069489,136.782349 322.185059,136.782349 324.479401,136.782349 
	C326.169739,129.513794 327.820831,122.414009 329.471893,115.314232 
	C332.006378,121.437706 333.501892,127.470085 334.628784,133.570541 
	C335.120575,136.232559 336.176208,137.071899 338.872437,137.113937 
	C341.714722,137.158264 343.055237,136.332504 343.656067,133.482971 
	C345.094452,126.661537 346.814575,119.899521 348.720245,112.343552 
M232.891586,88.877083 
	C232.320572,90.612495 231.277023,92.341629 231.253891,94.084312 
	C231.081390,107.073540 231.100647,120.065430 231.094040,133.056519 
	C231.093399,134.313477 231.325485,135.570587 231.453522,136.867889 
	C234.150970,136.867889 236.444077,136.867889 239.295929,136.867889 
	C239.295929,131.031616 239.295929,125.329796 239.295929,119.627983 
	C242.252380,123.132126 244.132477,126.885567 245.908798,130.687485 
	C249.225952,137.787231 249.200851,137.798950 257.928528,136.429565 
	C254.624924,129.631332 251.395279,122.985321 248.153473,116.314270 
	C249.751602,114.528763 251.286911,113.003487 252.602402,111.307686 
	C256.375427,106.443939 256.329498,101.102211 253.947845,95.764175 
	C251.653061,90.620789 247.352631,88.574287 241.817703,88.794006 
	C239.156891,88.899635 236.488556,88.816032 232.891586,88.877083 
M202.119827,135.598572 
	C205.407349,135.793503 208.699844,136.210037 211.981354,136.136642 
	C218.549957,135.989700 222.876724,132.388046 224.361343,125.935822 
	C225.783600,119.754616 223.683594,114.621002 219.083221,110.526741 
	C223.778534,104.382576 224.403000,99.231453 220.945023,93.884056 
	C216.324142,86.738319 209.123016,88.748924 201.892105,88.519760 
	C201.892105,104.187630 201.892105,119.448349 202.119827,135.598572 
M269.419678,131.033951 
	C280.866821,141.519943 294.842102,137.639587 298.151031,122.537819 
	C299.501129,116.376007 299.416840,109.661629 298.697205,103.345383 
	C297.812836,95.583115 290.978210,89.630981 283.719208,88.731453 
	C276.724243,87.864662 269.086548,91.925941 266.501160,98.890366 
	C262.505615,109.653465 262.803375,120.360039 269.419678,131.033951 
M462.494720,124.847343 
	C456.528809,112.912598 450.562927,100.977852 444.210754,88.270401 
	C435.897064,104.868591 427.949371,120.736099 419.871796,136.862961 
	C436.288940,136.862961 452.041016,136.862961 468.392944,136.862961 
	C466.442627,132.838623 464.661621,129.163574 462.494720,124.847343 
M412.896729,92.477432 
	C412.796844,90.347458 413.219635,87.952591 409.763428,88.100609 
	C404.949127,88.306786 400.113037,88.162735 395.318542,88.558876 
	C394.189301,88.652176 392.277985,90.292938 392.265472,91.242096 
	C392.070648,106.020172 392.129150,120.801582 392.129150,135.491470 
	C400.637054,137.187653 400.794464,137.045227 400.716858,129.075134 
	C400.672028,124.469849 400.708710,119.863762 400.708710,114.770500 
	C404.875183,114.770500 408.431274,114.770500 412.365814,114.770500 
	C412.203979,111.708595 412.070435,109.182449 411.915039,106.242905 
	C407.883148,106.242905 404.471008,106.242905 400.634552,106.242905 
	C400.787262,102.855492 400.918549,99.943092 401.070679,96.568764 
	C404.252289,96.568764 407.093414,96.883537 409.802429,96.422256 
	C410.975189,96.222565 411.875397,94.422195 412.896729,92.477432 
M367.159180,116.572105 
	C364.995850,123.115120 362.832550,129.658142 360.507202,136.691223 
	C369.165863,136.691223 377.030701,136.691223 384.836151,136.691223 
	C386.313293,129.431015 386.313812,129.411438 379.567688,129.234726 
	C377.117584,129.170532 374.664398,129.224396 371.324646,129.224396 
	C376.045349,115.477135 380.503906,102.493202 385.069550,89.197449 
	C376.586304,89.197449 369.378601,89.197449 362.297058,89.197449 
	C362.297058,91.516655 362.297058,93.444954 362.297058,95.958305 
	C366.277832,95.958305 369.993805,95.958305 374.342163,95.958305 
	C371.886047,103.072929 369.680786,109.460968 367.159180,116.572105 
M476.252228,104.750732 
	C480.247284,109.326584 484.156647,113.981339 488.269165,118.449097 
	C490.786072,121.183395 492.004059,124.192932 490.004974,127.433640 
	C487.998566,130.686264 484.735352,130.410248 481.577606,129.074173 
	C480.149811,128.470032 478.801178,127.678787 477.416656,126.972435 
	C476.879395,127.157898 476.342133,127.343369 475.804871,127.528831 
	C476.236603,130.255859 475.694550,134.259171 477.282532,135.470810 
	C482.063538,139.118729 492.207336,137.062790 496.102966,132.551849 
	C500.347534,127.636887 500.181580,120.511726 495.309448,114.812614 
	C492.841217,111.925446 489.911713,109.405357 487.025482,106.910515 
	C484.194702,104.463608 482.728027,101.382141 484.362854,98.093292 
	C486.091217,94.616325 489.369965,95.803329 492.265594,96.928902 
	C492.683411,97.091316 493.218750,96.951416 494.428650,96.951416 
	C494.759918,94.678452 496.163300,91.203041 495.196655,90.319000 
	C493.516113,88.782043 490.330414,88.198898 487.849304,88.358582 
	C480.314758,88.843475 475.833862,95.067780 476.252228,104.750732 
M513.780151,132.989075 
	C513.916199,134.231033 514.052246,135.472992 514.178345,136.624298 
	C516.719238,136.624298 518.827515,136.624298 521.562134,136.624298 
	C521.562134,123.293442 521.562134,110.193611 521.562134,96.884026 
	C524.586365,96.637138 527.005676,96.439644 529.693359,96.220230 
	C529.693359,93.684479 529.693359,91.425743 529.693359,89.218033 
	C529.318115,88.991074 529.038818,88.675323 528.758362,88.674217 
	C523.105408,88.652016 517.450378,88.765167 511.799957,88.647217 
	C504.960388,88.504448 504.487671,89.042931 506.272308,95.900269 
	C513.920898,96.556900 513.886108,96.556671 513.832458,104.584656 
	C513.771179,113.749306 513.780029,122.914429 513.780151,132.989075 
z"/>
<path fill="#84B272" opacity="1.000000" stroke="none" 
	d="
M129.000000,48.998955 
	C140.330643,48.999107 151.161438,48.963337 161.991882,49.011189 
	C170.136871,49.047176 174.619751,52.996078 174.657425,61.121586 
	C174.815048,95.112335 174.828094,129.104813 174.645203,163.095322 
	C174.600952,171.318176 170.268173,174.983429 161.841827,174.989227 
	C123.851288,175.015381 85.860710,175.014282 47.870163,174.990570 
	C38.938595,174.985001 35.017788,171.079224 35.011253,162.191498 
	C34.986759,128.866455 34.990131,95.541382 35.008854,62.216335 
	C35.014091,52.901840 39.012814,49.008274 48.519657,49.003639 
	C75.179764,48.990650 101.839882,48.999016 129.000000,48.998955 
M81.305534,89.853355 
	C77.453064,92.902321 72.986664,95.434517 69.886909,99.117065 
	C64.785400,105.177734 66.266632,109.975731 73.054100,114.116585 
	C74.338570,114.900215 75.811279,117.413284 75.436104,118.544067 
	C73.227341,125.201210 74.892319,131.361633 77.497993,137.279129 
	C79.148834,141.028214 82.441887,144.658524 86.768959,143.092361 
	C91.457848,141.395233 95.533035,139.686981 99.999191,142.956650 
	C99.999191,142.956650 99.957672,142.939926 99.760971,143.661499 
	C104.815926,145.436905 109.757744,147.869522 114.964043,148.765717 
	C118.676956,149.404846 123.218918,147.756607 123.872353,143.272354 
	C124.603813,138.252594 124.416153,133.234039 128.302017,131.681396 
	C131.212189,131.432449 132.938782,131.787552 134.010101,131.108612 
	C139.505493,127.626060 144.429169,123.230316 144.439285,116.254982 
	C144.448151,110.154083 138.984665,108.731621 135.651413,107.823654 
	C134.686295,103.917282 133.973145,101.030800 134.028351,98.081772 
	C134.282745,98.060562 134.537125,98.039352 135.313583,98.502785 
	C135.591309,96.613358 136.220428,94.697426 136.080292,92.839523 
	C135.674103,87.454636 133.848969,82.602829 128.551544,80.245308 
	C123.728348,78.098824 120.380661,81.271690 117.130074,84.236664 
	C116.934990,84.414604 116.559853,84.395157 116.079361,84.514549 
	C112.845184,77.218849 105.947655,75.539734 99.132957,74.212379 
	C91.042023,72.636429 86.891914,76.532249 87.030571,84.815712 
	C87.046799,85.785278 86.871071,86.758049 86.829048,87.228592 
	C84.960892,88.304588 83.470657,89.162910 82.023163,90.013649 
	C82.023163,90.013649 82.034340,89.970764 81.305534,89.853355 
z"/>
<path fill="#171717" opacity="1.000000" stroke="none" 
	d="
M348.570618,112.728531 
	C346.814575,119.899521 345.094452,126.661537 343.656067,133.482971 
	C343.055237,136.332504 341.714722,137.158264 338.872437,137.113937 
	C336.176208,137.071899 335.120575,136.232559 334.628784,133.570541 
	C333.501892,127.470085 332.006378,121.437706 329.471893,115.314232 
	C327.820831,122.414009 326.169739,129.513794 324.479401,136.782349 
	C322.185059,136.782349 320.069489,136.782349 317.343292,136.782349 
	C313.574829,121.208870 309.768707,105.479828 305.978271,89.815475 
	C312.527039,86.832115 314.493011,87.749138 315.957520,94.104309 
	C317.411285,100.412727 318.906067,106.711693 321.339539,113.210129 
	C322.921509,105.260025 324.503479,97.309929 326.077148,89.401627 
	C333.935394,87.933037 334.068573,88.002151 335.417267,95.567337 
	C336.508179,101.686493 337.533264,107.817383 339.745789,113.911270 
	C341.283142,107.710480 342.850769,101.517006 344.349915,95.306992 
	C346.082977,88.128052 346.056763,88.121727 354.582550,89.457191 
	C352.618073,97.126534 350.669159,104.735039 348.570618,112.728531 
z"/>
<path fill="#191919" opacity="1.000000" stroke="none" 
	d="
M233.357605,88.847610 
	C236.488556,88.816032 239.156891,88.899635 241.817703,88.794006 
	C247.352631,88.574287 251.653061,90.620789 253.947845,95.764175 
	C256.329498,101.102211 256.375427,106.443939 252.602402,111.307686 
	C251.286911,113.003487 249.751602,114.528763 248.153473,116.314270 
	C251.395279,122.985321 254.624924,129.631332 257.928528,136.429565 
	C249.200851,137.798950 249.225952,137.787231 245.908798,130.687485 
	C244.132477,126.885567 242.252380,123.132126 239.295929,119.627983 
	C239.295929,125.329796 239.295929,131.031616 239.295929,136.867889 
	C236.444077,136.867889 234.150970,136.867889 231.453522,136.867889 
	C231.325485,135.570587 231.093399,134.313477 231.094040,133.056519 
	C231.100647,120.065430 231.081390,107.073540 231.253891,94.084312 
	C231.277023,92.341629 232.320572,90.612495 233.357605,88.847610 
M239.167801,100.820206 
	C239.167801,104.198830 239.167801,107.577446 239.167801,110.956070 
	C239.811600,111.292023 240.455414,111.627975 241.099213,111.963928 
	C243.007004,110.084480 245.971603,108.475204 246.539627,106.253250 
	C247.167984,103.795441 246.311203,100.288193 244.818054,98.122749 
	C242.831299,95.241447 240.451553,96.213844 239.167801,100.820206 
z"/>
<path fill="#181818" opacity="1.000000" stroke="none" 
	d="
M202.005966,135.153809 
	C201.892105,119.448349 201.892105,104.187630 201.892105,88.519760 
	C209.123016,88.748924 216.324142,86.738319 220.945023,93.884056 
	C224.403000,99.231453 223.778534,104.382576 219.083221,110.526741 
	C223.683594,114.621002 225.783600,119.754616 224.361343,125.935822 
	C222.876724,132.388046 218.549957,135.989700 211.981354,136.136642 
	C208.699844,136.210037 205.407349,135.793503 202.005966,135.153809 
M215.392990,125.637657 
	C216.960800,118.435280 215.455444,115.390656 210.142883,115.458061 
	C210.142883,119.622574 210.142883,123.787117 210.142883,128.779037 
	C212.151154,127.747551 213.529114,127.039803 215.392990,125.637657 
M214.762222,99.146706 
	C213.372604,97.971291 211.982986,96.795876 209.999512,95.118149 
	C209.999512,100.053207 209.999512,103.863136 209.999512,107.889503 
	C214.678925,106.729652 215.650299,103.816124 214.762222,99.146706 
z"/>
<path fill="#191919" opacity="1.000000" stroke="none" 
	d="
M269.192413,130.750900 
	C262.803375,120.360039 262.505615,109.653465 266.501160,98.890366 
	C269.086548,91.925941 276.724243,87.864662 283.719208,88.731453 
	C290.978210,89.630981 297.812836,95.583115 298.697205,103.345383 
	C299.416840,109.661629 299.501129,116.376007 298.151031,122.537819 
	C294.842102,137.639587 280.866821,141.519943 269.192413,130.750900 
M290.251740,102.526276 
	C288.731323,98.485359 286.153534,95.381989 281.564545,95.652542 
	C276.576965,95.946594 273.594971,99.555992 273.102295,104.078461 
	C272.468689,109.894997 272.451294,115.906075 273.190674,121.702972 
	C273.745392,126.051857 276.860046,129.039093 281.823090,129.112366 
	C286.849731,129.186584 290.036133,126.043449 290.576111,121.833870 
	C291.358704,115.732613 290.684845,109.444542 290.251740,102.526276 
z"/>
<path fill="#181818" opacity="1.000000" stroke="none" 
	d="
M462.687653,125.167931 
	C464.661621,129.163574 466.442627,132.838623 468.392944,136.862961 
	C452.041016,136.862961 436.288940,136.862961 419.871796,136.862961 
	C427.949371,120.736099 435.897064,104.868591 444.210754,88.270401 
	C450.562927,100.977852 456.528809,112.912598 462.687653,125.167931 
M444.629456,120.832878 
	C442.972870,121.660194 441.316284,122.487503 439.659698,123.314812 
	C439.889191,123.722847 440.118713,124.130875 440.348236,124.538910 
	C445.910645,124.538910 451.473053,124.538910 457.784241,124.538910 
	C453.192261,115.426018 448.874512,106.857269 444.151733,97.484779 
	C438.055969,109.676674 432.382874,121.023209 426.491425,132.806488 
	C438.582245,132.806488 449.961853,132.806488 461.341461,132.806488 
	C461.531158,132.314728 461.720856,131.822983 461.910553,131.331223 
	C460.160370,130.552567 458.429993,129.158768 456.656586,129.101654 
	C448.952789,128.853638 441.236450,128.995239 432.923737,128.995239 
	C436.844696,121.177071 440.380615,114.126617 444.204498,106.501999 
	C446.748444,111.673576 448.903687,116.054893 451.253967,120.832733 
	C448.820404,120.832733 447.156769,120.832733 444.629456,120.832878 
z"/>
<path fill="#1F1F1F" opacity="1.000000" stroke="none" 
	d="
M412.898071,92.913170 
	C411.875397,94.422195 410.975189,96.222565 409.802429,96.422256 
	C407.093414,96.883537 404.252289,96.568764 401.070679,96.568764 
	C400.918549,99.943092 400.787262,102.855492 400.634552,106.242905 
	C404.471008,106.242905 407.883148,106.242905 411.915039,106.242905 
	C412.070435,109.182449 412.203979,111.708595 412.365814,114.770500 
	C408.431274,114.770500 404.875183,114.770500 400.708710,114.770500 
	C400.708710,119.863762 400.672028,124.469849 400.716858,129.075134 
	C400.794464,137.045227 400.637054,137.187653 392.129150,135.491470 
	C392.129150,120.801582 392.070648,106.020172 392.265472,91.242096 
	C392.277985,90.292938 394.189301,88.652176 395.318542,88.558876 
	C400.113037,88.162735 404.949127,88.306786 409.763428,88.100609 
	C413.219635,87.952591 412.796844,90.347458 412.898071,92.913170 
z"/>
<path fill="#191919" opacity="1.000000" stroke="none" 
	d="
M367.317352,116.210556 
	C369.680786,109.460968 371.886047,103.072929 374.342163,95.958305 
	C369.993805,95.958305 366.277832,95.958305 362.297058,95.958305 
	C362.297058,93.444954 362.297058,91.516655 362.297058,89.197449 
	C369.378601,89.197449 376.586304,89.197449 385.069550,89.197449 
	C380.503906,102.493202 376.045349,115.477135 371.324646,129.224396 
	C374.664398,129.224396 377.117584,129.170532 379.567688,129.234726 
	C386.313812,129.411438 386.313293,129.431015 384.836151,136.691223 
	C377.030701,136.691223 369.165863,136.691223 360.507202,136.691223 
	C362.832550,129.658142 364.995850,123.115120 367.317352,116.210556 
z"/>
<path fill="#181818" opacity="1.000000" stroke="none" 
	d="
M476.172974,104.350418 
	C475.833862,95.067780 480.314758,88.843475 487.849304,88.358582 
	C490.330414,88.198898 493.516113,88.782043 495.196655,90.319000 
	C496.163300,91.203041 494.759918,94.678452 494.428650,96.951416 
	C493.218750,96.951416 492.683411,97.091316 492.265594,96.928902 
	C489.369965,95.803329 486.091217,94.616325 484.362854,98.093292 
	C482.728027,101.382141 484.194702,104.463608 487.025482,106.910515 
	C489.911713,109.405357 492.841217,111.925446 495.309448,114.812614 
	C500.181580,120.511726 500.347534,127.636887 496.102966,132.551849 
	C492.207336,137.062790 482.063538,139.118729 477.282532,135.470810 
	C475.694550,134.259171 476.236603,130.255859 475.804871,127.528831 
	C476.342133,127.343369 476.879395,127.157898 477.416656,126.972435 
	C478.801178,127.678787 480.149811,128.470032 481.577606,129.074173 
	C484.735352,130.410248 487.998566,130.686264 490.004974,127.433640 
	C492.004059,124.192932 490.786072,121.183395 488.269165,118.449097 
	C484.156647,113.981339 480.247284,109.326584 476.172974,104.350418 
z"/>
<path fill="#1C1C1C" opacity="1.000000" stroke="none" 
	d="
M513.769287,132.534210 
	C513.780029,122.914429 513.771179,113.749306 513.832458,104.584656 
	C513.886108,96.556671 513.920898,96.556900 506.272308,95.900269 
	C504.487671,89.042931 504.960388,88.504448 511.799957,88.647217 
	C517.450378,88.765167 523.105408,88.652016 528.758362,88.674217 
	C529.038818,88.675323 529.318115,88.991074 529.693359,89.218033 
	C529.693359,91.425743 529.693359,93.684479 529.693359,96.220230 
	C527.005676,96.439644 524.586365,96.637138 521.562134,96.884026 
	C521.562134,110.193611 521.562134,123.293442 521.562134,136.624298 
	C518.827515,136.624298 516.719238,136.624298 514.178345,136.624298 
	C514.052246,135.472992 513.916199,134.231033 513.769287,132.534210 
z"/>
<path fill="#F9FBF8" opacity="1.000000" stroke="none" 
	d="
M81.980423,90.021240 
	C83.470657,89.162910 84.960892,88.304588 86.829048,87.228592 
	C86.871071,86.758049 87.046799,85.785278 87.030571,84.815712 
	C86.891914,76.532249 91.042023,72.636429 99.132957,74.212379 
	C105.947655,75.539734 112.845184,77.218849 116.079361,84.514549 
	C116.559853,84.395157 116.934990,84.414604 117.130074,84.236664 
	C120.380661,81.271690 123.728348,78.098824 128.551544,80.245308 
	C133.848969,82.602829 135.674103,87.454636 136.080292,92.839523 
	C136.220428,94.697426 135.591309,96.613358 135.077042,97.881836 
	C133.235794,93.383202 131.925278,89.336807 129.854752,85.726242 
	C129.197174,84.579567 126.493645,84.191483 124.771049,84.284431 
	C124.126610,84.319214 123.609406,86.712097 122.726837,87.954559 
	C121.667267,88.182190 120.448082,88.297775 120.239174,88.818596 
	C118.957291,92.014336 117.609032,95.233292 116.833939,98.572433 
	C115.037483,106.311676 116.879715,108.349075 124.818619,107.976410 
	C130.697678,107.700432 132.495346,104.996849 130.102570,99.451599 
	C128.685638,96.167870 126.709061,93.125641 125.319122,89.802780 
	C128.189423,92.468597 130.724716,95.306458 133.260010,98.144310 
	C133.973145,101.030800 134.686295,103.917282 135.651413,107.823654 
	C138.984665,108.731621 144.448151,110.154083 144.439285,116.254982 
	C144.429169,123.230316 139.505493,127.626060 134.010101,131.108612 
	C132.938782,131.787552 131.212189,131.432449 128.302017,131.681396 
	C124.416153,133.234039 124.603813,138.252594 123.872353,143.272354 
	C123.218918,147.756607 118.676956,149.404846 114.964043,148.765717 
	C109.757744,147.869522 104.815926,145.436905 100.259727,143.313919 
	C104.601120,143.898590 108.401115,145.120590 112.296577,145.693878 
	C117.875694,146.514938 120.263107,144.132843 119.441956,138.986038 
	C112.959846,140.324142 106.479919,141.661804 99.999992,142.999466 
	C95.533035,139.686981 91.457848,141.395233 86.768959,143.092361 
	C82.441887,144.658524 79.148834,141.028214 77.497993,137.279129 
	C74.892319,131.361633 73.227341,125.201210 75.436104,118.544067 
	C75.811279,117.413284 74.338570,114.900215 73.054100,114.116585 
	C66.266632,109.975731 64.785400,105.177734 69.886909,99.117065 
	C72.986664,95.434517 77.453064,92.902321 81.697601,90.209900 
	C81.909164,90.920631 81.728668,91.274818 81.228943,91.736908 
	C77.764351,95.368095 74.068794,98.552681 71.631477,102.511856 
	C69.289146,106.316727 71.062523,108.806686 74.513588,109.308006 
	C77.124603,103.417610 79.629120,97.767487 82.410416,91.989365 
	C83.067017,91.411446 83.446846,90.961533 83.927650,90.392014 
	C83.141289,90.242279 82.560852,90.131752 81.980423,90.021240 
M88.706284,134.776260 
	C92.298317,133.752609 97.439522,120.616798 95.464188,117.502220 
	C95.378212,117.366676 95.260506,117.161644 95.141449,117.149681 
	C90.846008,116.718201 86.548637,116.305832 82.251549,115.890823 
	C82.174049,118.938316 81.304832,122.250877 82.214455,124.967896 
	C83.419098,128.566086 86.014816,131.698563 87.323380,134.997971 
	C83.848778,131.382629 80.374168,127.767303 76.899559,124.151970 
	C76.498810,124.396591 76.098061,124.641205 75.697319,124.885826 
	C77.698196,129.087204 79.397926,133.481125 81.885239,137.371506 
	C82.622185,138.524139 85.577225,138.258636 87.515854,138.642990 
	C87.660019,137.419647 87.804184,136.196289 88.706284,134.776260 
M116.091148,137.933517 
	C118.587570,137.784225 119.692192,136.634109 117.820862,134.556671 
	C114.116821,130.444672 110.172783,126.548843 106.049583,122.275108 
	C103.451210,124.989777 101.342476,126.695984 99.862770,128.836945 
	C96.205864,134.128082 97.633408,137.832901 103.950851,138.642624 
	C107.640343,139.115524 111.499008,138.268539 116.091148,137.933517 
M80.660629,110.107918 
	C85.824547,108.820343 90.988457,107.532776 97.181442,105.988617 
	C94.923752,101.374405 93.509804,98.075294 91.736839,94.981956 
	C90.125198,92.170090 87.157326,91.969818 85.521637,94.254898 
	C82.389793,98.630127 80.006241,103.545578 77.465660,108.318542 
	C77.384796,108.470474 78.987511,109.518539 80.660629,110.107918 
M110.850395,85.278603 
	C104.817368,83.148064 98.932838,83.654701 91.860672,86.440155 
	C95.414345,90.276855 98.421272,93.637550 101.556450,96.874031 
	C104.352699,99.760620 106.971085,99.889221 109.826012,96.567741 
	C113.672607,92.092537 114.381294,88.845848 110.850395,85.278603 
M128.286667,126.822929 
	C130.510468,122.522804 132.734268,118.222687 135.288055,113.284462 
	C127.920212,112.009285 122.595306,114.172272 117.302391,116.406624 
	C116.767128,116.632584 115.969131,117.517319 116.075844,117.790100 
	C117.592216,121.666344 118.976845,125.654411 121.137566,129.156235 
	C121.479317,129.710098 125.471436,128.011581 128.286667,126.822929 
M136.483719,113.208542 
	C134.663742,118.757912 132.843765,124.307274 131.023773,129.856644 
	C131.456482,130.149551 131.889191,130.442459 132.321884,130.735367 
	C134.886078,127.260780 137.719086,123.947502 139.930923,120.261482 
	C141.758560,117.215706 140.929993,114.472153 136.483719,113.208542 
M93.420990,83.910065 
	C98.947937,82.646935 104.474876,81.383797 110.183022,80.079247 
	C105.171158,78.303902 100.055740,76.033623 94.413200,78.003265 
	C91.594208,78.987297 89.447670,80.893295 93.420990,83.910065 
M102.713341,113.726028 
	C105.184654,115.352242 107.725571,116.341431 109.016815,112.612724 
	C109.399635,111.507256 108.770615,109.589073 107.924225,108.671448 
	C107.285805,107.979294 104.899254,107.731110 104.452713,108.262230 
	C103.365753,109.555023 102.954788,111.416191 102.713341,113.726028 
z"/>
<path fill="#8AB679" opacity="1.000000" stroke="none" 
	d="
M123.034180,88.029808 
	C123.609406,86.712097 124.126610,84.319214 124.771049,84.284431 
	C126.493645,84.191483 129.197174,84.579567 129.854752,85.726242 
	C131.925278,89.336807 133.235794,93.383202 134.815994,97.639526 
	C134.537125,98.039352 134.282745,98.060562 133.644180,98.113037 
	C130.724716,95.306458 128.189423,92.468597 125.334732,89.812996 
	C125.015335,89.995247 125.013519,90.032944 125.107727,89.680725 
	C124.788643,89.212402 124.375343,89.096298 123.984589,88.986923 
	C124.007133,88.993637 124.020416,89.038788 124.075180,88.706795 
	C123.739853,88.241570 123.349747,88.108345 122.982880,87.982529 
	C123.006119,87.989944 123.034180,88.029808 123.034180,88.029808 
z"/>
<path fill="#F1F1F1" opacity="1.000000" stroke="none" 
	d="
M239.169739,100.364838 
	C240.451553,96.213844 242.831299,95.241447 244.818054,98.122749 
	C246.311203,100.288193 247.167984,103.795441 246.539627,106.253250 
	C245.971603,108.475204 243.007004,110.084480 241.099213,111.963928 
	C240.455414,111.627975 239.811600,111.292023 239.167801,110.956070 
	C239.167801,107.577446 239.167801,104.198830 239.169739,100.364838 
z"/>
<path fill="#F5F5F5" opacity="1.000000" stroke="none" 
	d="
M215.150024,125.984856 
	C213.529114,127.039803 212.151154,127.747551 210.142883,128.779037 
	C210.142883,123.787117 210.142883,119.622574 210.142883,115.458061 
	C215.455444,115.390656 216.960800,118.435280 215.150024,125.984856 
z"/>
<path fill="#F7F7F7" opacity="1.000000" stroke="none" 
	d="
M214.881134,99.540741 
	C215.650299,103.816124 214.678925,106.729652 209.999512,107.889503 
	C209.999512,103.863136 209.999512,100.053207 209.999512,95.118149 
	C211.982986,96.795876 213.372604,97.971291 214.881134,99.540741 
z"/>
<path fill="#FCFCFC" opacity="1.000000" stroke="none" 
	d="
M290.441956,102.881210 
	C290.684845,109.444542 291.358704,115.732613 290.576111,121.833870 
	C290.036133,126.043449 286.849731,129.186584 281.823090,129.112366 
	C276.860046,129.039093 273.745392,126.051857 273.190674,121.702972 
	C272.451294,115.906075 272.468689,109.894997 273.102295,104.078461 
	C273.594971,99.555992 276.576965,95.946594 281.564545,95.652542 
	C286.153534,95.381989 288.731323,98.485359 290.441956,102.881210 
z"/>
<path fill="#F5F5F5" opacity="1.000000" stroke="none" 
	d="
M445.061310,120.832809 
	C447.156769,120.832733 448.820404,120.832733 451.253967,120.832733 
	C448.903687,116.054893 446.748444,111.673576 444.204498,106.501999 
	C440.380615,114.126617 436.844696,121.177071 432.923737,128.995239 
	C441.236450,128.995239 448.952789,128.853638 456.656586,129.101654 
	C458.429993,129.158768 460.160370,130.552567 461.910553,131.331223 
	C461.720856,131.822983 461.531158,132.314728 461.341461,132.806488 
	C449.961853,132.806488 438.582245,132.806488 426.491425,132.806488 
	C432.382874,121.023209 438.055969,109.676674 444.151733,97.484779 
	C448.874512,106.857269 453.192261,115.426018 457.784241,124.538910 
	C451.473053,124.538910 445.910645,124.538910 440.348236,124.538910 
	C440.118713,124.130875 439.889191,123.722847 439.659698,123.314812 
	C441.316284,122.487503 442.972870,121.660194 445.061310,120.832809 
z"/>
<path fill="#87B475" opacity="1.000000" stroke="none" 
	d="
M124.999733,89.985031 
	C126.709061,93.125641 128.685638,96.167870 130.102570,99.451599 
	C132.495346,104.996849 130.697678,107.700432 124.818619,107.976410 
	C116.879715,108.349075 115.037483,106.311676 116.833939,98.572433 
	C117.609032,95.233292 118.957291,92.014336 120.239174,88.818596 
	C120.448082,88.297775 121.667267,88.182190 122.726837,87.954559 
	C123.034180,88.029808 123.006119,87.989944 123.053200,88.249939 
	C123.406990,88.686218 123.713707,88.862503 124.020416,89.038788 
	C124.020416,89.038788 124.007133,88.993637 124.031204,89.270828 
	C124.374687,89.709656 124.694099,89.871300 125.013519,90.032944 
	C125.013519,90.032944 125.015335,89.995247 124.999733,89.985031 
z"/>
<path fill="#86B475" opacity="1.000000" stroke="none" 
	d="
M115.686356,137.974442 
	C111.499008,138.268539 107.640343,139.115524 103.950851,138.642624 
	C97.633408,137.832901 96.205864,134.128082 99.862770,128.836945 
	C101.342476,126.695984 103.451210,124.989777 106.049583,122.275108 
	C110.172783,126.548843 114.116821,130.444672 117.820862,134.556671 
	C119.692192,136.634109 118.587570,137.784225 115.686356,137.974442 
z"/>
<path fill="#86B475" opacity="1.000000" stroke="none" 
	d="
M80.233002,110.128380 
	C78.987511,109.518539 77.384796,108.470474 77.465660,108.318542 
	C80.006241,103.545578 82.389793,98.630127 85.521637,94.254898 
	C87.157326,91.969818 90.125198,92.170090 91.736839,94.981956 
	C93.509804,98.075294 94.923752,101.374405 97.181442,105.988617 
	C90.988457,107.532776 85.824547,108.820343 80.233002,110.128380 
z"/>
<path fill="#87B576" opacity="1.000000" stroke="none" 
	d="
M111.199875,85.465500 
	C114.381294,88.845848 113.672607,92.092537 109.826012,96.567741 
	C106.971085,99.889221 104.352699,99.760620 101.556450,96.874031 
	C98.421272,93.637550 95.414345,90.276855 91.860672,86.440155 
	C98.932838,83.654701 104.817368,83.148064 111.199875,85.465500 
z"/>
<path fill="#87B475" opacity="1.000000" stroke="none" 
	d="
M88.012695,135.031189 
	C86.014816,131.698563 83.419098,128.566086 82.214455,124.967896 
	C81.304832,122.250877 82.174049,118.938316 82.251541,115.890823 
	C86.548637,116.305832 90.846008,116.718201 95.141449,117.149681 
	C95.260506,117.161644 95.378212,117.366676 95.464188,117.502220 
	C97.439522,120.616798 92.298317,133.752609 88.342064,134.890732 
	C87.977844,135.005203 88.012695,135.031189 88.012695,135.031189 
z"/>
<path fill="#87B475" opacity="1.000000" stroke="none" 
	d="
M128.031235,127.088684 
	C125.471436,128.011581 121.479317,129.710098 121.137566,129.156235 
	C118.976845,125.654411 117.592216,121.666344 116.075844,117.790100 
	C115.969131,117.517319 116.767128,116.632584 117.302391,116.406624 
	C122.595306,114.172272 127.920212,112.009285 135.288055,113.284462 
	C132.734268,118.222687 130.510468,122.522804 128.031235,127.088684 
z"/>
<path fill="#8EB97D" opacity="1.000000" stroke="none" 
	d="
M82.133636,92.117363 
	C79.629120,97.767487 77.124603,103.417610 74.513588,109.308006 
	C71.062523,108.806686 69.289146,106.316727 71.631477,102.511856 
	C74.068794,98.552681 77.764351,95.368095 81.376205,91.857925 
	C81.842682,91.871048 82.133636,92.117363 82.133636,92.117363 
z"/>
<path fill="#8DB87C" opacity="1.000000" stroke="none" 
	d="
M99.999588,142.978058 
	C106.479919,141.661804 112.959846,140.324142 119.441956,138.986038 
	C120.263107,144.132843 117.875694,146.514938 112.296577,145.693878 
	C108.401115,145.120590 104.601120,143.898590 100.358078,142.953125 
	C99.957672,142.939926 99.999191,142.956650 99.999588,142.978058 
z"/>
<path fill="#8CB87B" opacity="1.000000" stroke="none" 
	d="
M136.865738,113.180435 
	C140.929993,114.472153 141.758560,117.215706 139.930923,120.261482 
	C137.719086,123.947502 134.886078,127.260780 132.321884,130.735367 
	C131.889191,130.442459 131.456482,130.149551 131.023773,129.856644 
	C132.843765,124.307274 134.663742,118.757912 136.865738,113.180435 
z"/>
<path fill="#8DB87D" opacity="1.000000" stroke="none" 
	d="
M93.032089,83.956039 
	C89.447670,80.893295 91.594208,78.987297 94.413200,78.003265 
	C100.055740,76.033623 105.171158,78.303902 110.183022,80.079247 
	C104.474876,81.383797 98.947937,82.646935 93.032089,83.956039 
z"/>
<path fill="#89B678" opacity="1.000000" stroke="none" 
	d="
M87.963097,134.989075 
	C87.804184,136.196289 87.660019,137.419647 87.515854,138.642975 
	C85.577225,138.258636 82.622185,138.524139 81.885239,137.371506 
	C79.397926,133.481125 77.698196,129.087204 75.697319,124.885826 
	C76.098061,124.641205 76.498810,124.396591 76.899559,124.151970 
	C80.374168,127.767303 83.848778,131.382629 87.668037,135.014587 
	C88.012695,135.031189 87.977844,135.005203 87.963097,134.989075 
z"/>
<path fill="#88B577" opacity="1.000000" stroke="none" 
	d="
M102.492455,113.387238 
	C102.954788,111.416191 103.365753,109.555023 104.452713,108.262230 
	C104.899254,107.731110 107.285805,107.979294 107.924225,108.671448 
	C108.770615,109.589073 109.399635,111.507256 109.016815,112.612724 
	C107.725571,116.341431 105.184654,115.352242 102.492455,113.387238 
z"/>
<path fill="#8EB97D" opacity="1.000000" stroke="none" 
	d="
M81.695427,91.750023 
	C81.728668,91.274818 81.909164,90.920631 82.061996,90.268600 
	C82.034340,89.970764 82.023163,90.013649 82.001793,90.017441 
	C82.560852,90.131752 83.141289,90.242279 83.927650,90.392014 
	C83.446846,90.961533 83.067017,91.411446 82.410416,91.989365 
	C82.133636,92.117363 81.842682,91.871048 81.695427,91.750023 
z"/>
<path fill="#F9FBF8" opacity="1.000000" stroke="none" 
	d="
M125.107727,89.680725 
	C124.694099,89.871300 124.374687,89.709656 124.008652,89.264114 
	C124.375343,89.096298 124.788643,89.212402 125.107727,89.680725 
z"/>
<path fill="#F9FBF8" opacity="1.000000" stroke="none" 
	d="
M124.075180,88.706795 
	C123.713707,88.862503 123.406990,88.686218 123.029968,88.242523 
	C123.349747,88.108345 123.739853,88.241570 124.075180,88.706795 
z"/>
</svg>